<mxfile host="65bd71144e">
    <diagram id="C5RBs43oDa-KdzZeNtuy" name="classes diagram">
        <mxGraphModel dx="1530" dy="682" grid="1" gridSize="10" guides="1" tooltips="1" connect="1" arrows="1" fold="1" page="1" pageScale="1" pageWidth="827" pageHeight="1169" background="none" math="0" shadow="0">
            <root>
                <mxCell id="WIyWlLk6GJQsqaUBKTNV-0"/>
                <mxCell id="WIyWlLk6GJQsqaUBKTNV-1" parent="WIyWlLk6GJQsqaUBKTNV-0"/>
                <mxCell id="zkfFHV4jXpPFQw0GAbJ--0" value="DuelTurnsManagerStrategy" style="swimlane;fontStyle=2;align=center;verticalAlign=top;childLayout=stackLayout;horizontal=1;startSize=26;horizontalStack=0;resizeParent=1;resizeLast=0;collapsible=1;marginBottom=0;rounded=0;shadow=0;strokeWidth=1;" parent="WIyWlLk6GJQsqaUBKTNV-1" vertex="1">
                    <mxGeometry x="245.43" y="150" width="196" height="234" as="geometry">
                        <mxRectangle x="230" y="140" width="160" height="26" as="alternateBounds"/>
                    </mxGeometry>
                </mxCell>
                <mxCell id="zkfFHV4jXpPFQw0GAbJ--3" value="- turn_factory: TurnFactory" style="text;align=left;verticalAlign=top;spacingLeft=4;spacingRight=4;overflow=hidden;rotatable=0;points=[[0,0.5],[1,0.5]];portConstraint=eastwest;rounded=0;shadow=0;html=0;" parent="zkfFHV4jXpPFQw0GAbJ--0" vertex="1">
                    <mxGeometry y="26" width="196" height="24" as="geometry"/>
                </mxCell>
                <mxCell id="oa_gG71FnIs9wD1ZZNGb-38" value="- turn_pass_enum: TurnPassEnum" style="text;align=left;verticalAlign=top;spacingLeft=4;spacingRight=4;overflow=hidden;rotatable=0;points=[[0,0.5],[1,0.5]];portConstraint=eastwest;rounded=0;shadow=0;html=0;" parent="zkfFHV4jXpPFQw0GAbJ--0" vertex="1">
                    <mxGeometry y="50" width="196" height="24" as="geometry"/>
                </mxCell>
                <mxCell id="zkfFHV4jXpPFQw0GAbJ--4" value="" style="line;html=1;strokeWidth=1;align=left;verticalAlign=middle;spacingTop=-1;spacingLeft=3;spacingRight=3;rotatable=0;labelPosition=right;points=[];portConstraint=eastwest;" parent="zkfFHV4jXpPFQw0GAbJ--0" vertex="1">
                    <mxGeometry y="74" width="196" height="2" as="geometry"/>
                </mxCell>
                <mxCell id="zkfFHV4jXpPFQw0GAbJ--5" value="+ new_duel" style="text;align=left;verticalAlign=top;spacingLeft=4;spacingRight=4;overflow=hidden;rotatable=0;points=[[0,0.5],[1,0.5]];portConstraint=eastwest;" parent="zkfFHV4jXpPFQw0GAbJ--0" vertex="1">
                    <mxGeometry y="76" width="196" height="26" as="geometry"/>
                </mxCell>
                <mxCell id="eCzo08NP8buQ-9JWIne4-0" value="+ new_duel_from_another" style="text;align=left;verticalAlign=top;spacingLeft=4;spacingRight=4;overflow=hidden;rotatable=0;points=[[0,0.5],[1,0.5]];portConstraint=eastwest;" parent="zkfFHV4jXpPFQw0GAbJ--0" vertex="1">
                    <mxGeometry y="102" width="196" height="26" as="geometry"/>
                </mxCell>
                <mxCell id="oa_gG71FnIs9wD1ZZNGb-2" value="+ hydrate_from_existing_duel" style="text;align=left;verticalAlign=top;spacingLeft=4;spacingRight=4;overflow=hidden;rotatable=0;points=[[0,0.5],[1,0.5]];portConstraint=eastwest;" parent="zkfFHV4jXpPFQw0GAbJ--0" vertex="1">
                    <mxGeometry y="128" width="196" height="26" as="geometry"/>
                </mxCell>
                <mxCell id="oa_gG71FnIs9wD1ZZNGb-1" value="+ next_turn" style="text;align=left;verticalAlign=top;spacingLeft=4;spacingRight=4;overflow=hidden;rotatable=0;points=[[0,0.5],[1,0.5]];portConstraint=eastwest;" parent="zkfFHV4jXpPFQw0GAbJ--0" vertex="1">
                    <mxGeometry y="154" width="196" height="26" as="geometry"/>
                </mxCell>
                <mxCell id="oa_gG71FnIs9wD1ZZNGb-0" value="+ get_current_player" style="text;align=left;verticalAlign=top;spacingLeft=4;spacingRight=4;overflow=hidden;rotatable=0;points=[[0,0.5],[1,0.5]];portConstraint=eastwest;" parent="zkfFHV4jXpPFQw0GAbJ--0" vertex="1">
                    <mxGeometry y="180" width="196" height="26" as="geometry"/>
                </mxCell>
                <mxCell id="zkfFHV4jXpPFQw0GAbJ--17" value="CircularQueueTurn" style="swimlane;fontStyle=0;align=center;verticalAlign=top;childLayout=stackLayout;horizontal=1;startSize=26;horizontalStack=0;resizeParent=1;resizeLast=0;collapsible=1;marginBottom=0;rounded=0;shadow=0;strokeWidth=1;" parent="WIyWlLk6GJQsqaUBKTNV-1" vertex="1">
                    <mxGeometry x="454.43" y="580" width="160" height="40" as="geometry">
                        <mxRectangle x="550" y="140" width="160" height="26" as="alternateBounds"/>
                    </mxGeometry>
                </mxCell>
                <mxCell id="zkfFHV4jXpPFQw0GAbJ--23" value="" style="line;html=1;strokeWidth=1;align=left;verticalAlign=middle;spacingTop=-1;spacingLeft=3;spacingRight=3;rotatable=0;labelPosition=right;points=[];portConstraint=eastwest;" parent="zkfFHV4jXpPFQw0GAbJ--17" vertex="1">
                    <mxGeometry y="26" width="160" height="8" as="geometry"/>
                </mxCell>
                <mxCell id="Rf_c0kuRCPa441ml4ELp-0" value="RandomQueueTurn" style="swimlane;fontStyle=0;align=center;verticalAlign=top;childLayout=stackLayout;horizontal=1;startSize=26;horizontalStack=0;resizeParent=1;resizeLast=0;collapsible=1;marginBottom=0;rounded=0;shadow=0;strokeWidth=1;" parent="WIyWlLk6GJQsqaUBKTNV-1" vertex="1">
                    <mxGeometry x="454.43" y="642" width="160" height="40" as="geometry">
                        <mxRectangle x="550" y="140" width="160" height="26" as="alternateBounds"/>
                    </mxGeometry>
                </mxCell>
                <mxCell id="Rf_c0kuRCPa441ml4ELp-1" value="" style="line;html=1;strokeWidth=1;align=left;verticalAlign=middle;spacingTop=-1;spacingLeft=3;spacingRight=3;rotatable=0;labelPosition=right;points=[];portConstraint=eastwest;" parent="Rf_c0kuRCPa441ml4ELp-0" vertex="1">
                    <mxGeometry y="26" width="160" height="8" as="geometry"/>
                </mxCell>
                <mxCell id="Rf_c0kuRCPa441ml4ELp-4" value="InverseQueueTurn" style="swimlane;fontStyle=0;align=center;verticalAlign=top;childLayout=stackLayout;horizontal=1;startSize=26;horizontalStack=0;resizeParent=1;resizeLast=0;collapsible=1;marginBottom=0;rounded=0;shadow=0;strokeWidth=1;" parent="WIyWlLk6GJQsqaUBKTNV-1" vertex="1">
                    <mxGeometry x="454.43" y="720" width="160" height="40" as="geometry">
                        <mxRectangle x="550" y="140" width="160" height="26" as="alternateBounds"/>
                    </mxGeometry>
                </mxCell>
                <mxCell id="Rf_c0kuRCPa441ml4ELp-5" value="" style="line;html=1;strokeWidth=1;align=left;verticalAlign=middle;spacingTop=-1;spacingLeft=3;spacingRight=3;rotatable=0;labelPosition=right;points=[];portConstraint=eastwest;" parent="Rf_c0kuRCPa441ml4ELp-4" vertex="1">
                    <mxGeometry y="26" width="160" height="8" as="geometry"/>
                </mxCell>
                <mxCell id="eCzo08NP8buQ-9JWIne4-3" value="TurnFactory" style="swimlane;fontStyle=1;align=center;verticalAlign=top;childLayout=stackLayout;horizontal=1;startSize=26;horizontalStack=0;resizeParent=1;resizeParentMax=0;resizeLast=0;collapsible=1;marginBottom=0;whiteSpace=wrap;html=1;" parent="WIyWlLk6GJQsqaUBKTNV-1" vertex="1">
                    <mxGeometry x="190" y="474" width="306.87" height="84" as="geometry"/>
                </mxCell>
                <mxCell id="eCzo08NP8buQ-9JWIne4-4" value="- turn_pass_cache: Dict&amp;lt;TurnPassEnum, ITurnPass" style="text;strokeColor=none;fillColor=none;align=left;verticalAlign=top;spacingLeft=4;spacingRight=4;overflow=hidden;rotatable=0;points=[[0,0.5],[1,0.5]];portConstraint=eastwest;whiteSpace=wrap;html=1;" parent="eCzo08NP8buQ-9JWIne4-3" vertex="1">
                    <mxGeometry y="26" width="306.87" height="24" as="geometry"/>
                </mxCell>
                <mxCell id="eCzo08NP8buQ-9JWIne4-5" value="" style="line;strokeWidth=1;fillColor=none;align=left;verticalAlign=middle;spacingTop=-1;spacingLeft=3;spacingRight=3;rotatable=0;labelPosition=right;points=[];portConstraint=eastwest;strokeColor=inherit;" parent="eCzo08NP8buQ-9JWIne4-3" vertex="1">
                    <mxGeometry y="50" width="306.87" height="8" as="geometry"/>
                </mxCell>
                <mxCell id="eCzo08NP8buQ-9JWIne4-6" value="+ get_turn_pass(turn_pass: TurnPassEnum): ITurnPass" style="text;strokeColor=none;fillColor=none;align=left;verticalAlign=top;spacingLeft=4;spacingRight=4;overflow=hidden;rotatable=0;points=[[0,0.5],[1,0.5]];portConstraint=eastwest;whiteSpace=wrap;html=1;" parent="eCzo08NP8buQ-9JWIne4-3" vertex="1">
                    <mxGeometry y="58" width="306.87" height="26" as="geometry"/>
                </mxCell>
                <mxCell id="eCzo08NP8buQ-9JWIne4-14" value="1" style="endArrow=open;html=1;endSize=12;startArrow=diamondThin;startSize=14;startFill=1;edgeStyle=orthogonalEdgeStyle;align=left;verticalAlign=bottom;rounded=0;exitX=0.5;exitY=1;exitDx=0;exitDy=0;entryX=0.5;entryY=0;entryDx=0;entryDy=0;" parent="WIyWlLk6GJQsqaUBKTNV-1" source="zkfFHV4jXpPFQw0GAbJ--0" target="eCzo08NP8buQ-9JWIne4-3" edge="1">
                    <mxGeometry x="-0.5556" y="13" relative="1" as="geometry">
                        <mxPoint x="201.43" y="520" as="sourcePoint"/>
                        <mxPoint x="361.43" y="520" as="targetPoint"/>
                        <mxPoint as="offset"/>
                    </mxGeometry>
                </mxCell>
                <mxCell id="eCzo08NP8buQ-9JWIne4-40" value="1" style="endArrow=open;html=1;endSize=12;startArrow=diamondThin;startSize=14;startFill=1;edgeStyle=orthogonalEdgeStyle;align=left;verticalAlign=bottom;rounded=0;" parent="WIyWlLk6GJQsqaUBKTNV-1" source="eCzo08NP8buQ-9JWIne4-3" target="Rf_c0kuRCPa441ml4ELp-4" edge="1">
                    <mxGeometry x="-0.8593" y="3" relative="1" as="geometry">
                        <mxPoint x="738.4300000000001" y="842" as="sourcePoint"/>
                        <mxPoint x="911.4300000000001" y="810" as="targetPoint"/>
                        <Array as="points">
                            <mxPoint x="250" y="740"/>
                        </Array>
                        <mxPoint as="offset"/>
                    </mxGeometry>
                </mxCell>
                <mxCell id="oa_gG71FnIs9wD1ZZNGb-3" value="&amp;lt;&amp;lt;InnerClass&amp;gt;&amp;gt;&lt;br&gt;TeamBuilder" style="swimlane;fontStyle=1;align=center;verticalAlign=top;childLayout=stackLayout;horizontal=1;startSize=40;horizontalStack=0;resizeParent=1;resizeParentMax=0;resizeLast=0;collapsible=1;marginBottom=0;whiteSpace=wrap;html=1;" parent="WIyWlLk6GJQsqaUBKTNV-1" vertex="1">
                    <mxGeometry x="561.6800000000001" y="140" width="433" height="110" as="geometry"/>
                </mxCell>
                <mxCell id="oa_gG71FnIs9wD1ZZNGb-19" value="- team_manager: TeamManager" style="text;strokeColor=none;fillColor=none;align=left;verticalAlign=top;spacingLeft=4;spacingRight=4;overflow=hidden;rotatable=0;points=[[0,0.5],[1,0.5]];portConstraint=eastwest;whiteSpace=wrap;html=1;" parent="oa_gG71FnIs9wD1ZZNGb-3" vertex="1">
                    <mxGeometry y="40" width="433" height="26" as="geometry"/>
                </mxCell>
                <mxCell id="oa_gG71FnIs9wD1ZZNGb-5" value="" style="line;strokeWidth=1;fillColor=none;align=left;verticalAlign=middle;spacingTop=-1;spacingLeft=3;spacingRight=3;rotatable=0;labelPosition=right;points=[];portConstraint=eastwest;strokeColor=inherit;" parent="oa_gG71FnIs9wD1ZZNGb-3" vertex="1">
                    <mxGeometry y="66" width="433" height="18" as="geometry"/>
                </mxCell>
                <mxCell id="oa_gG71FnIs9wD1ZZNGb-6" value="+ add_team(add_player_callback:: ICharacterBuilder): ITeamBuilder" style="text;strokeColor=none;fillColor=none;align=left;verticalAlign=top;spacingLeft=4;spacingRight=4;overflow=hidden;rotatable=0;points=[[0,0.5],[1,0.5]];portConstraint=eastwest;whiteSpace=wrap;html=1;" parent="oa_gG71FnIs9wD1ZZNGb-3" vertex="1">
                    <mxGeometry y="84" width="433" height="26" as="geometry"/>
                </mxCell>
                <mxCell id="oa_gG71FnIs9wD1ZZNGb-7" value="&lt;p style=&quot;margin:0px;margin-top:4px;text-align:center;&quot;&gt;&lt;i&gt;&amp;lt;&amp;lt;Interface&amp;gt;&amp;gt;&lt;/i&gt;&lt;br&gt;&lt;b&gt;ICharacterBuilder&lt;/b&gt;&lt;/p&gt;&lt;hr size=&quot;1&quot;&gt;&lt;hr size=&quot;1&quot;&gt;&lt;p style=&quot;margin:0px;margin-left:4px;&quot;&gt;+ add_character(character: Character): ICharacterBuilder&lt;br&gt;&lt;/p&gt;" style="verticalAlign=top;align=left;overflow=fill;fontSize=12;fontFamily=Helvetica;html=1;whiteSpace=wrap;" parent="WIyWlLk6GJQsqaUBKTNV-1" vertex="1">
                    <mxGeometry x="1081.43" y="220" width="310" height="80" as="geometry"/>
                </mxCell>
                <mxCell id="oa_gG71FnIs9wD1ZZNGb-8" value="&lt;p style=&quot;margin:0px;margin-top:4px;text-align:center;&quot;&gt;&lt;i&gt;&amp;lt;&amp;lt;Interface&amp;gt;&amp;gt;&lt;/i&gt;&lt;br&gt;&lt;b&gt;ITeamBuilder&lt;/b&gt;&lt;/p&gt;&lt;hr size=&quot;1&quot;&gt;&lt;hr size=&quot;1&quot;&gt;&lt;p style=&quot;margin:0px;margin-left:4px;&quot;&gt;+ add_team(add_character_callback: ICharacterBuilder): ITeamBuilder&lt;br&gt;&lt;/p&gt;" style="verticalAlign=top;align=left;overflow=fill;fontSize=12;fontFamily=Helvetica;html=1;whiteSpace=wrap;" parent="WIyWlLk6GJQsqaUBKTNV-1" vertex="1">
                    <mxGeometry x="1081.43" y="100" width="380" height="80" as="geometry"/>
                </mxCell>
                <mxCell id="oa_gG71FnIs9wD1ZZNGb-9" value="" style="endArrow=block;dashed=1;endFill=0;endSize=12;html=1;rounded=0;exitX=1;exitY=0.5;exitDx=0;exitDy=0;entryX=0;entryY=0.5;entryDx=0;entryDy=0;" parent="WIyWlLk6GJQsqaUBKTNV-1" source="oa_gG71FnIs9wD1ZZNGb-6" target="oa_gG71FnIs9wD1ZZNGb-8" edge="1">
                    <mxGeometry width="160" relative="1" as="geometry">
                        <mxPoint x="871.4300000000001" y="304" as="sourcePoint"/>
                        <mxPoint x="1031.43" y="304" as="targetPoint"/>
                    </mxGeometry>
                </mxCell>
                <mxCell id="oa_gG71FnIs9wD1ZZNGb-10" value="" style="endArrow=block;dashed=1;endFill=0;endSize=12;html=1;rounded=0;entryX=0;entryY=0.5;entryDx=0;entryDy=0;exitX=1;exitY=0.5;exitDx=0;exitDy=0;" parent="WIyWlLk6GJQsqaUBKTNV-1" source="oa_gG71FnIs9wD1ZZNGb-6" target="oa_gG71FnIs9wD1ZZNGb-7" edge="1">
                    <mxGeometry width="160" relative="1" as="geometry">
                        <mxPoint x="981.4300000000001" y="233" as="sourcePoint"/>
                        <mxPoint x="1091.43" y="150" as="targetPoint"/>
                    </mxGeometry>
                </mxCell>
                <mxCell id="oa_gG71FnIs9wD1ZZNGb-11" value="TeamManager" style="swimlane;fontStyle=1;align=center;verticalAlign=top;childLayout=stackLayout;horizontal=1;startSize=26;horizontalStack=0;resizeParent=1;resizeParentMax=0;resizeLast=0;collapsible=1;marginBottom=0;whiteSpace=wrap;html=1;" parent="WIyWlLk6GJQsqaUBKTNV-1" vertex="1">
                    <mxGeometry x="574.9300000000001" y="330" width="406.5" height="112" as="geometry"/>
                </mxCell>
                <mxCell id="oa_gG71FnIs9wD1ZZNGb-12" value="# teams: List&amp;lt;Team&amp;gt;" style="text;strokeColor=none;fillColor=none;align=left;verticalAlign=top;spacingLeft=4;spacingRight=4;overflow=hidden;rotatable=0;points=[[0,0.5],[1,0.5]];portConstraint=eastwest;whiteSpace=wrap;html=1;" parent="oa_gG71FnIs9wD1ZZNGb-11" vertex="1">
                    <mxGeometry y="26" width="406.5" height="26" as="geometry"/>
                </mxCell>
                <mxCell id="oa_gG71FnIs9wD1ZZNGb-21" value="- turn_pass: ITurnPass" style="text;strokeColor=none;fillColor=none;align=left;verticalAlign=top;spacingLeft=4;spacingRight=4;overflow=hidden;rotatable=0;points=[[0,0.5],[1,0.5]];portConstraint=eastwest;whiteSpace=wrap;html=1;" parent="oa_gG71FnIs9wD1ZZNGb-11" vertex="1">
                    <mxGeometry y="52" width="406.5" height="26" as="geometry"/>
                </mxCell>
                <mxCell id="oa_gG71FnIs9wD1ZZNGb-13" value="" style="line;strokeWidth=1;fillColor=none;align=left;verticalAlign=middle;spacingTop=-1;spacingLeft=3;spacingRight=3;rotatable=0;labelPosition=right;points=[];portConstraint=eastwest;strokeColor=inherit;" parent="oa_gG71FnIs9wD1ZZNGb-11" vertex="1">
                    <mxGeometry y="78" width="406.5" height="8" as="geometry"/>
                </mxCell>
                <mxCell id="oa_gG71FnIs9wD1ZZNGb-14" value="+ add_team(add_player_callback: ICharacterBuilder): TeamBuilder" style="text;strokeColor=none;fillColor=none;align=left;verticalAlign=top;spacingLeft=4;spacingRight=4;overflow=hidden;rotatable=0;points=[[0,0.5],[1,0.5]];portConstraint=eastwest;whiteSpace=wrap;html=1;" parent="oa_gG71FnIs9wD1ZZNGb-11" vertex="1">
                    <mxGeometry y="86" width="406.5" height="26" as="geometry"/>
                </mxCell>
                <mxCell id="oa_gG71FnIs9wD1ZZNGb-28" value="&lt;div&gt;&amp;lt;&amp;lt;Entity&amp;gt;&amp;gt;&lt;/div&gt;&lt;div&gt;Character&lt;/div&gt;" style="swimlane;fontStyle=1;align=center;verticalAlign=top;childLayout=stackLayout;horizontal=1;startSize=40;horizontalStack=0;resizeParent=1;resizeParentMax=0;resizeLast=0;collapsible=1;marginBottom=0;whiteSpace=wrap;html=1;" parent="WIyWlLk6GJQsqaUBKTNV-1" vertex="1">
                    <mxGeometry x="1040.68" y="364" width="391.5" height="58" as="geometry"/>
                </mxCell>
                <mxCell id="oa_gG71FnIs9wD1ZZNGb-30" value="" style="line;strokeWidth=1;fillColor=none;align=left;verticalAlign=middle;spacingTop=-1;spacingLeft=3;spacingRight=3;rotatable=0;labelPosition=right;points=[];portConstraint=eastwest;strokeColor=inherit;" parent="oa_gG71FnIs9wD1ZZNGb-28" vertex="1">
                    <mxGeometry y="40" width="391.5" height="18" as="geometry"/>
                </mxCell>
                <mxCell id="oa_gG71FnIs9wD1ZZNGb-32" value="" style="endArrow=open;startArrow=circlePlus;endFill=0;startFill=0;endSize=8;html=1;rounded=0;" parent="WIyWlLk6GJQsqaUBKTNV-1" source="oa_gG71FnIs9wD1ZZNGb-11" target="oa_gG71FnIs9wD1ZZNGb-3" edge="1">
                    <mxGeometry width="160" relative="1" as="geometry">
                        <mxPoint x="761.4300000000001" y="269.5" as="sourcePoint"/>
                        <mxPoint x="921.4300000000001" y="269.5" as="targetPoint"/>
                    </mxGeometry>
                </mxCell>
                <mxCell id="oa_gG71FnIs9wD1ZZNGb-33" value="Use" style="endArrow=open;endSize=12;dashed=1;html=1;rounded=0;" parent="WIyWlLk6GJQsqaUBKTNV-1" source="oa_gG71FnIs9wD1ZZNGb-7" target="oa_gG71FnIs9wD1ZZNGb-28" edge="1">
                    <mxGeometry width="160" relative="1" as="geometry">
                        <mxPoint x="1201.43" y="330" as="sourcePoint"/>
                        <mxPoint x="1361.43" y="330" as="targetPoint"/>
                    </mxGeometry>
                </mxCell>
                <mxCell id="oa_gG71FnIs9wD1ZZNGb-36" value="1" style="endArrow=open;html=1;endSize=12;startArrow=diamondThin;startSize=14;startFill=1;edgeStyle=orthogonalEdgeStyle;align=left;verticalAlign=bottom;rounded=0;" parent="WIyWlLk6GJQsqaUBKTNV-1" source="eCzo08NP8buQ-9JWIne4-6" target="Rf_c0kuRCPa441ml4ELp-0" edge="1">
                    <mxGeometry x="-0.7831" relative="1" as="geometry">
                        <mxPoint x="481.43" y="700" as="sourcePoint"/>
                        <mxPoint x="934.4300000000001" y="782" as="targetPoint"/>
                        <Array as="points">
                            <mxPoint x="290" y="670"/>
                        </Array>
                        <mxPoint as="offset"/>
                    </mxGeometry>
                </mxCell>
                <mxCell id="oa_gG71FnIs9wD1ZZNGb-37" value="1" style="endArrow=open;html=1;endSize=12;startArrow=diamondThin;startSize=14;startFill=1;edgeStyle=orthogonalEdgeStyle;align=left;verticalAlign=bottom;rounded=0;" parent="WIyWlLk6GJQsqaUBKTNV-1" source="eCzo08NP8buQ-9JWIne4-3" target="zkfFHV4jXpPFQw0GAbJ--17" edge="1">
                    <mxGeometry x="-0.6541" relative="1" as="geometry">
                        <mxPoint x="541.4300000000001" y="490" as="sourcePoint"/>
                        <mxPoint x="671.4300000000001" y="602" as="targetPoint"/>
                        <Array as="points">
                            <mxPoint x="340" y="600"/>
                        </Array>
                        <mxPoint as="offset"/>
                    </mxGeometry>
                </mxCell>
                <mxCell id="oa_gG71FnIs9wD1ZZNGb-39" value="1" style="endArrow=open;html=1;endSize=12;startArrow=diamondThin;startSize=14;startFill=1;edgeStyle=orthogonalEdgeStyle;align=left;verticalAlign=bottom;rounded=0;" parent="WIyWlLk6GJQsqaUBKTNV-1" source="zkfFHV4jXpPFQw0GAbJ--0" target="oa_gG71FnIs9wD1ZZNGb-11" edge="1">
                    <mxGeometry x="-0.8416" relative="1" as="geometry">
                        <mxPoint x="511.43" y="260" as="sourcePoint"/>
                        <mxPoint x="511.43" y="350" as="targetPoint"/>
                        <mxPoint as="offset"/>
                    </mxGeometry>
                </mxCell>
                <mxCell id="oa_gG71FnIs9wD1ZZNGb-40" value="&lt;p style=&quot;margin:0px;margin-top:4px;text-align:center;&quot;&gt;&lt;i&gt;&amp;lt;&amp;lt;Interface&amp;gt;&amp;gt;&lt;/i&gt;&lt;b&gt;&lt;br&gt;&lt;/b&gt;&lt;/p&gt;&lt;p style=&quot;margin:0px;margin-top:4px;text-align:center;&quot;&gt;&lt;b&gt;ITurnPass&lt;/b&gt;&lt;br&gt;&lt;b&gt;&lt;/b&gt;&lt;/p&gt;&lt;hr size=&quot;1&quot;&gt;&lt;div&gt;+ next_turn(Type): Type&lt;/div&gt;&lt;div&gt;+ get_current_player(Type, Type): Type&lt;/div&gt;" style="verticalAlign=top;align=left;overflow=fill;fontSize=12;fontFamily=Helvetica;html=1;whiteSpace=wrap;" parent="WIyWlLk6GJQsqaUBKTNV-1" vertex="1">
                    <mxGeometry x="669.77" y="618" width="216.82" height="88" as="geometry"/>
                </mxCell>
                <mxCell id="oa_gG71FnIs9wD1ZZNGb-41" value="" style="endArrow=block;dashed=1;endFill=0;endSize=12;html=1;rounded=0;" parent="WIyWlLk6GJQsqaUBKTNV-1" source="zkfFHV4jXpPFQw0GAbJ--17" target="oa_gG71FnIs9wD1ZZNGb-40" edge="1">
                    <mxGeometry width="160" relative="1" as="geometry">
                        <mxPoint x="631.4300000000001" y="499.5" as="sourcePoint"/>
                        <mxPoint x="718.4300000000001" y="532.5" as="targetPoint"/>
                    </mxGeometry>
                </mxCell>
                <mxCell id="oa_gG71FnIs9wD1ZZNGb-42" value="" style="endArrow=block;dashed=1;endFill=0;endSize=12;html=1;rounded=0;" parent="WIyWlLk6GJQsqaUBKTNV-1" source="Rf_c0kuRCPa441ml4ELp-0" target="oa_gG71FnIs9wD1ZZNGb-40" edge="1">
                    <mxGeometry width="160" relative="1" as="geometry">
                        <mxPoint x="624.4300000000001" y="626" as="sourcePoint"/>
                        <mxPoint x="761.4300000000001" y="653" as="targetPoint"/>
                    </mxGeometry>
                </mxCell>
                <mxCell id="oa_gG71FnIs9wD1ZZNGb-43" value="" style="endArrow=block;dashed=1;endFill=0;endSize=12;html=1;rounded=0;" parent="WIyWlLk6GJQsqaUBKTNV-1" source="Rf_c0kuRCPa441ml4ELp-4" target="oa_gG71FnIs9wD1ZZNGb-40" edge="1">
                    <mxGeometry width="160" relative="1" as="geometry">
                        <mxPoint x="624.4300000000001" y="672" as="sourcePoint"/>
                        <mxPoint x="761.4300000000001" y="672" as="targetPoint"/>
                    </mxGeometry>
                </mxCell>
                <mxCell id="oa_gG71FnIs9wD1ZZNGb-44" value="Use" style="endArrow=open;endSize=12;dashed=1;html=1;rounded=0;" parent="WIyWlLk6GJQsqaUBKTNV-1" source="oa_gG71FnIs9wD1ZZNGb-11" target="oa_gG71FnIs9wD1ZZNGb-40" edge="1">
                    <mxGeometry width="160" relative="1" as="geometry">
                        <mxPoint x="791.4300000000001" y="470" as="sourcePoint"/>
                        <mxPoint x="791.4300000000001" y="524" as="targetPoint"/>
                    </mxGeometry>
                </mxCell>
                <mxCell id="0" value="PriorityQueueTurn (D&amp;D)" style="swimlane;fontStyle=0;align=center;verticalAlign=top;childLayout=stackLayout;horizontal=1;startSize=26;horizontalStack=0;resizeParent=1;resizeLast=0;collapsible=1;marginBottom=0;rounded=0;shadow=0;strokeWidth=1;" parent="WIyWlLk6GJQsqaUBKTNV-1" vertex="1">
                    <mxGeometry x="454.43" y="800" width="160" height="40" as="geometry">
                        <mxRectangle x="550" y="140" width="160" height="26" as="alternateBounds"/>
                    </mxGeometry>
                </mxCell>
                <mxCell id="1" value="" style="line;html=1;strokeWidth=1;align=left;verticalAlign=middle;spacingTop=-1;spacingLeft=3;spacingRight=3;rotatable=0;labelPosition=right;points=[];portConstraint=eastwest;" parent="0" vertex="1">
                    <mxGeometry y="26" width="160" height="8" as="geometry"/>
                </mxCell>
                <mxCell id="2" value="1" style="endArrow=open;html=1;endSize=12;startArrow=diamondThin;startSize=14;startFill=1;edgeStyle=orthogonalEdgeStyle;align=left;verticalAlign=bottom;rounded=0;" edge="1" parent="WIyWlLk6GJQsqaUBKTNV-1" source="eCzo08NP8buQ-9JWIne4-3" target="0">
                    <mxGeometry x="-0.8593" y="3" relative="1" as="geometry">
                        <mxPoint x="241.4000000000001" y="568" as="sourcePoint"/>
                        <mxPoint x="464.43000000000006" y="750" as="targetPoint"/>
                        <Array as="points">
                            <mxPoint x="210" y="820"/>
                        </Array>
                        <mxPoint as="offset"/>
                    </mxGeometry>
                </mxCell>
                <mxCell id="3" value="" style="endArrow=block;dashed=1;endFill=0;endSize=12;html=1;rounded=0;exitX=1;exitY=0.5;exitDx=0;exitDy=0;" edge="1" parent="WIyWlLk6GJQsqaUBKTNV-1" source="0" target="oa_gG71FnIs9wD1ZZNGb-40">
                    <mxGeometry width="160" relative="1" as="geometry">
                        <mxPoint x="606.9300000000003" y="730" as="sourcePoint"/>
                        <mxPoint x="679.77" y="706.6912" as="targetPoint"/>
                    </mxGeometry>
                </mxCell>
            </root>
        </mxGraphModel>
    </diagram>
</mxfile>